<svg id="Component_89_1" data-name="Component 89 – 1" xmlns="http://www.w3.org/2000/svg" width="17920" height="6319.092" viewBox="0 0 17920 6319.092">
  <g id="head" transform="translate(0 0)">
    <g id="Component_88_1" data-name="Component 88 – 1">
      <g id="Component_85_1" data-name="Component 85 – 1">
        <g id="Component_87_1" data-name="Component 87 – 1">
          <path id="duotone_3_" data-name="duotone (3)" d="M0,0H16018.224V6258.057H0Z" transform="translate(0 60.528)" fill="#131212"/>
          <path id="Path_47" data-name="Path 47" d="M684.722,6241.28s684.025-2160.759,2703.923-1356.389S3784.008,2032.98,6105.059,2579.027,6957.3,55.561,9271.613-36.423s1546.055,0,1546.055,0v6277.7Z" transform="translate(6980.019 77.304)" fill="#fb0a0a"/>
          <g id="Component_84_1" data-name="Component 84 – 1" transform="translate(9088.262 1879.844)">
            <path id="Path_48" data-name="Path 48" d="M1073.125,4605.513s856.236,45.609,1170.2-754.358S3289.865,2384.549,4420.13,2651.2,5710.6,2593,6407.481,1650.99s1862.844-2088.8,2762.87-1111.065-557.227,4065.589-557.227,4065.589Z" transform="translate(-1073.125 -166.743)" fill="#0a0a0a"/>
          </g>
        </g>
      </g>
    </g>
  </g>
  <g id="Component_86_1" data-name="Component 86 – 1" transform="translate(6873 2494.604)">
    <text id="Unrivaled" transform="translate(0 1079)" fill="#fb0a0a" font-size="1000" font-family="SegoeUI, Segoe UI"><tspan x="0" y="0">Unrivaled</tspan></text>
  </g>
</svg>
